<svg width="22" height="17" viewBox="0 0 22 17" fill="none" xmlns="http://www.w3.org/2000/svg">
<path d="M19.1684 0.978496L19.1689 0.97832C19.408 0.901863 19.667 0.880959 19.9187 0.917483C20.1702 0.953997 20.4067 1.0468 20.6023 1.18747C20.6024 1.1875 20.6024 1.18752 20.6024 1.18755L19.1684 0.978496ZM19.1684 0.978496L1.81027 6.63822L19.1684 0.978496ZM16.1433 16L16.1426 16.1C16.1428 16.1 16.143 16.1 16.1431 16.1C16.1433 16.1 16.1435 16.1 16.1436 16.1L16.1433 16ZM2.24179 7.76465L2.24187 7.75438L2.23986 7.74431C2.23904 7.74024 2.23936 7.73455 2.24468 7.72719C2.25052 7.7191 2.26255 7.70941 2.28162 7.70406L2.28164 7.70415L2.28564 7.70284L15.9721 3.2387L7.03987 8.59601L2.30872 7.80579L2.30876 7.80553L2.30149 7.80485C2.27971 7.80283 2.26278 7.79437 2.2528 7.78505C2.24329 7.77617 2.24176 7.76857 2.24179 7.76465ZM8.0114 14.3148L8.01139 14.3148L8.00963 14.3164C7.99914 14.3255 7.98312 14.3334 7.96304 14.3365C7.94299 14.3395 7.92265 14.337 7.90557 14.3302L7.90559 14.3301L7.90246 14.329C7.88486 14.3226 7.87249 14.3131 7.8651 14.3039C7.85817 14.2953 7.85583 14.2874 7.85557 14.2811V10.4282L10.4235 12.3123L8.0114 14.3148ZM16.235 14.9117L16.2349 14.9116L16.2341 14.9152C16.2326 14.9216 16.2284 14.93 16.2194 14.9385C16.2103 14.9471 16.1969 14.9551 16.1797 14.9598C16.1625 14.9646 16.1437 14.9655 16.1255 14.9624L16.1085 15.0609L16.1255 14.9624C16.1074 14.9592 16.0921 14.9524 16.0809 14.944L16.0801 14.9434L8.27488 9.23982L19.6854 2.40403L16.235 14.9117Z" fill="#DCB5C3" stroke="#DCB5C3" stroke-width="0.2"/>
</svg>
