<svg width="19" height="20" viewBox="0 0 19 20" fill="none" xmlns="http://www.w3.org/2000/svg">
<path d="M8.99961 0C7.391 0.0233338 3.93502 0.286672 2.00418 2.05587C0.570032 3.48924 0.0641568 5.58344 0.0115658 8.181C-0.0410252 10.7777 -0.109477 15.647 4.59199 16.967H4.59449L4.59116 18.9804C4.59116 18.9804 4.56027 19.7946 5.10037 19.9612C5.74899 20.1629 6.13048 19.5446 6.75323 18.8762C7.09298 18.5095 7.56463 17.9729 7.91941 17.5595C11.1333 17.8312 13.6059 17.2128 13.8881 17.122C14.5359 16.912 18.2089 16.442 18.8066 11.5744C19.4243 6.55763 18.5061 3.38257 16.8532 1.95254C16.3557 1.4942 14.3439 0.035834 9.86194 0.016667C9.86194 0.016667 9.5322 -0.00416675 8.99628 0.00250005L8.99961 0ZM9.04803 1.41086C9.50299 1.40753 9.78264 1.42503 9.78264 1.42503C13.5742 1.4417 15.3898 2.58172 15.8114 2.96339C17.2097 4.15925 17.9234 7.02014 17.4025 11.2111V11.2127C16.8983 15.2778 13.9181 15.5328 13.3688 15.7086C13.1351 15.7836 10.963 16.3228 8.23245 16.1453C8.23245 16.1453 6.19894 18.5954 5.56367 19.232C5.4635 19.3321 5.34663 19.3712 5.26983 19.3521C5.16131 19.3246 5.13126 19.1954 5.13209 19.007L5.14879 15.6586C1.17358 14.5586 1.40481 10.4152 1.45072 8.246C1.4958 6.07595 1.90401 4.29759 3.11694 3.10173C4.7531 1.6242 7.68651 1.42003 9.05221 1.41003L9.04803 1.41086ZM9.36525 3.57924C9.30053 3.5825 9.23951 3.61035 9.1947 3.65708C9.14989 3.70382 9.12469 3.76589 9.12426 3.83059C9.12384 3.89528 9.14822 3.95768 9.1924 4.005C9.23659 4.05232 9.29724 4.08097 9.36191 4.08508C10.7176 4.09341 11.8212 4.53259 12.7244 5.41177C13.6201 6.28346 14.0767 7.46848 14.0876 9.02351C14.0893 9.16268 14.2045 9.27352 14.3439 9.27352C14.4106 9.27264 14.4743 9.24556 14.5212 9.19815C14.568 9.15073 14.5943 9.0868 14.5943 9.02018C14.5826 7.36681 14.0784 6.02345 13.0783 5.0501C12.085 4.08341 10.8311 3.58924 9.36608 3.57924H9.36525ZM6.05953 4.15842C5.88205 4.13388 5.70141 4.16814 5.54531 4.25592L5.53696 4.25758C5.178 4.46342 4.85578 4.72593 4.5803 5.03427C4.57863 5.0376 4.57529 5.0376 4.57363 5.04093C4.35074 5.31011 4.22302 5.57261 4.18963 5.83095C4.18309 5.86947 4.18113 5.90863 4.18378 5.94762C4.18378 6.06095 4.20215 6.17262 4.23804 6.28096L4.2489 6.28929C4.36159 6.6893 4.64375 7.35265 5.2548 8.45933C5.60541 9.09935 6.00861 9.70936 6.46189 10.281C6.68728 10.5677 6.92937 10.8419 7.18815 11.1011L7.29834 11.2111C7.55712 11.4677 7.8326 11.7111 8.11976 11.9361C8.69289 12.3887 9.30334 12.7921 9.94458 13.1419C11.0532 13.7528 11.7193 14.0336 12.1183 14.1469L12.1267 14.1586C12.2719 14.206 12.4257 14.2216 12.5775 14.2044C12.8363 14.1744 13.1009 14.0461 13.3688 13.8211C13.3722 13.8211 13.3713 13.8194 13.3755 13.8169C13.6844 13.5419 13.9457 13.2169 14.1519 12.8603L14.1544 12.8519C14.3422 12.4919 14.2796 12.1502 14.0041 11.9186C14.0008 11.9186 13.4214 11.4352 13.1384 11.2269C12.8379 11.0144 12.5291 10.8169 12.2093 10.6352C11.7836 10.3977 11.3478 10.5469 11.1675 10.7802L10.7944 11.2502C10.6024 11.4861 10.2459 11.4552 10.2459 11.4552C7.64143 10.7919 6.94439 8.15933 6.94439 8.15933C6.94439 8.15933 6.91351 7.80432 7.15142 7.61265L7.6214 7.23931C7.85263 7.06014 8.00206 6.62513 7.76331 6.19929C7.582 5.87952 7.38417 5.56938 7.17062 5.2701C6.94643 4.97724 6.71542 4.68966 6.47775 4.40759C6.37307 4.27672 6.22399 4.18867 6.05869 4.16008L6.05953 4.15842ZM9.80768 4.89176C9.7406 4.88977 9.67547 4.91447 9.62663 4.96042C9.57778 5.00636 9.54922 5.0698 9.54723 5.13677C9.54524 5.20374 9.56997 5.26875 9.616 5.31751C9.66203 5.36627 9.72557 5.39478 9.79265 5.39677C10.761 5.46761 11.4764 5.78511 12.0006 6.35513C12.5266 6.92847 12.777 7.62515 12.7569 8.49684C12.7606 8.56092 12.7883 8.62128 12.8346 8.66586C12.8808 8.71044 12.9423 8.73596 13.0065 8.73733C13.0708 8.7387 13.1333 8.71581 13.1814 8.67324C13.2295 8.63067 13.2598 8.57154 13.2662 8.50767C13.287 7.52848 12.9873 6.68013 12.3755 6.01262C11.7577 5.33761 10.8921 4.96843 9.82938 4.89093H9.80935L9.80768 4.89176ZM10.1942 6.25012C10.1299 6.25106 10.0684 6.27624 10.0219 6.32061C9.97546 6.36497 9.94754 6.42523 9.94375 6.4893C9.93707 6.62847 10.0439 6.74763 10.1842 6.75597C10.6208 6.7793 10.9146 6.9018 11.1133 7.10764C11.3136 7.31181 11.4372 7.62432 11.4605 8.07766C11.4691 8.14049 11.501 8.19782 11.5499 8.23832C11.5988 8.27882 11.6611 8.29955 11.7245 8.29641C11.788 8.29327 11.8479 8.26649 11.8926 8.22136C11.9372 8.17623 11.9633 8.11603 11.9656 8.05266C11.9405 7.51598 11.7861 7.07097 11.4814 6.75513C11.175 6.44013 10.736 6.27679 10.2125 6.24929H10.1975L10.1942 6.25012Z" fill="#DCB5C3"/>
</svg>
